<!DOCTYPE svg PUBLIC "-//W3C//DTD SVG 20010904//EN" "http://www.w3.org/TR/2001/REC-SVG-20010904/DTD/svg10.dtd">
<svg version="1.0" xmlns="http://www.w3.org/2000/svg" width="164px" height="154px" viewBox="0 0 1640 1540" preserveAspectRatio="xMidYMid meet">
<g id="layer1" fill="#3f3f3f" stroke="none">
 <path d="M340 1425 c0 -20 -5 -25 -25 -25 -20 0 -25 -5 -25 -25 0 -24 2 -25 75 -25 l75 0 0 -75 0 -75 -50 0 -50 0 0 50 0 50 -50 0 c-47 0 -50 -2 -50 -25 0 -20 -5 -25 -25 -25 -20 0 -25 -5 -25 -25 0 -20 5 -25 25 -25 20 0 25 -5 25 -25 0 -24 2 -25 75 -25 l75 0 0 -50 c0 -47 -2 -50 -25 -50 -20 0 -25 -5 -25 -25 0 -20 -5 -25 -25 -25 -20 0 -25 -5 -25 -25 0 -20 -5 -25 -25 -25 l-25 0 0 -150 0 -150 25 0 c20 0 25 -5 25 -25 0 -20 5 -25 25 -25 20 0 25 -5 25 -25 0 -20 5 -25 25 -25 24 0 25 -2 25 -75 0 -73 1 -75 25 -75 20 0 25 -5 25 -25 0 -20 5 -25 25 -25 20 0 25 -5 25 -25 0 -20 5 -25 25 -25 20 0 25 -5 25 -25 0 -24 2 -25 75 -25 73 0 75 1 75 25 0 20 5 25 25 25 23 0 25 -3 25 -50 l0 -50 -50 0 c-47 0 -50 -2 -50 -25 l0 -25 -100 0 -100 0 0 -50 0 -50 39 0 c67 0 101 11 101 31 0 16 8 19 55 19 52 0 55 1 55 25 0 20 5 25 25 25 20 0 25 5 25 25 0 20 5 25 25 25 20 0 25 5 25 25 0 20 5 25 25 25 20 0 25 -5 25 -25 0 -20 5 -25 25 -25 20 0 25 -5 25 -25 0 -20 5 -25 25 -25 20 0 25 -5 25 -25 0 -24 2 -25 75 -25 73 0 75 -1 75 -25 0 -23 3 -25 50 -25 l50 0 0 50 0 50 -100 0 -100 0 0 25 c0 20 -5 25 -25 25 -20 0 -25 5 -25 25 0 20 -5 25 -25 25 -20 0 -25 5 -25 25 0 23 3 25 50 25 47 0 50 -2 50 -25 0 -23 3 -25 50 -25 47 0 50 2 50 25 0 23 3 25 50 25 47 0 50 2 50 25 0 20 5 25 25 25 l25 0 0 100 0 100 25 0 c20 0 25 5 25 25 0 20 5 25 25 25 20 0 25 5 25 25 0 20 5 25 25 25 l25 0 0 125 0 125 -25 0 c-23 0 -25 3 -25 50 0 46 -2 50 -24 50 -19 0 -24 6 -29 38 -4 20 -4 54 0 75 5 31 10 37 29 37 19 0 24 -5 24 -25 0 -23 3 -25 50 -25 l50 0 0 75 c0 73 -1 75 -25 75 -20 0 -25 5 -25 25 0 20 -5 25 -25 25 -23 0 -25 -3 -25 -49 l0 -49 -44 -6 c-44 -7 -45 -8 -52 -52 l-6 -44 -49 0 -49 0 0 50 c0 47 2 50 25 50 20 0 25 5 25 25 0 20 5 25 25 25 23 0 25 3 25 50 l0 50 50 0 c47 0 50 2 50 25 l0 25 -100 0 -100 0 0 -50 c0 -47 2 -50 25 -50 20 0 25 -5 25 -25 0 -20 -5 -25 -25 -25 -20 0 -25 -5 -25 -25 0 -24 -2 -25 -75 -25 -73 0 -75 1 -75 25 0 20 5 25 25 25 23 0 25 3 25 50 0 47 2 50 25 50 20 0 25 5 25 25 0 24 -2 25 -64 25 -35 0 -78 -3 -95 -6 -34 -7 -43 -34 -11 -34 16 0 20 -7 20 -30 0 -25 4 -30 25 -30 20 0 25 -5 25 -25 0 -20 -5 -25 -25 -25 -20 0 -25 -5 -25 -25 l0 -25 -100 0 -100 0 0 25 c0 20 -5 25 -25 25 -23 0 -25 3 -25 50 0 47 2 50 25 50 20 0 25 5 25 25 0 20 -5 25 -25 25 -20 0 -25 5 -25 25 0 23 -3 25 -50 25 l-50 0 0 -50 c0 -47 2 -50 25 -50 24 0 25 -2 25 -75 l0 -75 -50 0 c-47 0 -50 2 -50 25 0 20 -5 25 -25 25 l-25 0 0 100 0 100 -75 0 c-73 0 -75 -1 -75 -25z m150 -250 c0 -20 -5 -25 -25 -25 -20 0 -25 5 -25 25 0 20 5 25 25 25 20 0 25 -5 25 -25z m300 -225 l0 -150 -100 0 -100 0 0 50 c0 47 -2 50 -25 50 -24 0 -25 2 -25 75 0 73 1 75 25 75 20 0 25 5 25 25 l0 25 100 0 100 0 0 -150z m250 125 c0 -20 5 -25 25 -25 24 0 25 -2 25 -75 0 -73 -1 -75 -25 -75 -23 0 -25 -3 -25 -50 l0 -50 -100 0 -100 0 0 150 0 150 100 0 100 0 0 -25z m-550 -200 l0 -125 -25 0 c-20 0 -25 -5 -25 -25 0 -20 -5 -25 -25 -25 -23 0 -25 3 -25 50 0 47 -2 50 -25 50 -20 0 -25 5 -25 25 0 20 5 25 25 25 23 0 25 3 25 50 0 47 2 50 25 50 20 0 25 5 25 25 0 20 5 25 25 25 l25 0 0 -125z m700 100 c0 -20 5 -25 25 -25 l25 0 0 -125 0 -125 -25 0 c-20 0 -25 5 -25 25 0 20 -5 25 -25 25 -20 0 -25 5 -25 25 0 20 -5 25 -25 25 -20 0 -25 5 -25 25 0 20 5 25 25 25 24 0 25 2 25 75 0 73 1 75 25 75 20 0 25 -5 25 -25z m-500 -300 c0 -20 5 -25 25 -25 20 0 25 -5 25 -25 0 -20 5 -25 25 -25 l25 0 0 -100 0 -100 -25 0 c-20 0 -25 -5 -25 -25 0 -23 -3 -25 -50 -25 -47 0 -50 -2 -50 -25 0 -20 -5 -25 -25 -25 -20 0 -25 5 -25 25 0 23 -3 25 -50 25 -47 0 -50 2 -50 25 0 20 -5 25 -25 25 l-25 0 0 100 0 100 25 0 c20 0 25 5 25 25 0 20 5 25 25 25 20 0 25 5 25 25 0 24 2 25 75 25 73 0 75 -1 75 -25z m400 0 c0 -23 3 -25 50 -25 l50 0 0 -125 0 -125 -25 0 c-20 0 -25 -5 -25 -25 l0 -25 -100 0 -100 0 0 25 c0 20 -5 25 -25 25 l-25 0 0 125 0 125 50 0 c47 0 50 2 50 25 0 23 3 25 50 25 47 0 50 -2 50 -25z"/>
 <path d="M590 500 c0 -47 2 -50 25 -50 23 0 25 3 25 50 0 47 -2 50 -25 50 -23 0 -25 -3 -25 -50z"/>
 <path d="M990 525 c0 -20 5 -25 25 -25 20 0 25 -5 25 -25 0 -20 5 -25 25 -25 23 0 25 3 25 50 l0 50 -50 0 c-47 0 -50 -2 -50 -25z"/>
 </g>
<g id="layer2" fill="#fefefe" stroke="none">
 <path d="M0 770 l0 -770 820 0 820 0 0 770 0 770 -820 0 -820 0 0 -770z m490 580 l0 -100 25 0 c20 0 25 -5 25 -25 0 -23 3 -25 50 -25 l50 0 0 75 c0 73 -1 75 -25 75 -23 0 -25 3 -25 50 l0 50 50 0 c47 0 50 -2 50 -25 0 -20 5 -25 25 -25 20 0 25 -5 25 -25 0 -20 -5 -25 -25 -25 -23 0 -25 -3 -25 -50 0 -47 2 -50 25 -50 20 0 25 -5 25 -25 l0 -25 100 0 100 0 0 25 c0 20 5 25 25 25 20 0 25 5 25 25 0 20 -5 25 -25 25 -21 0 -25 5 -25 30 0 23 -4 30 -20 30 -32 0 -23 27 11 34 17 3 60 6 95 6 62 0 64 -1 64 -25 0 -20 -5 -25 -25 -25 -23 0 -25 -3 -25 -50 0 -47 -2 -50 -25 -50 -20 0 -25 -5 -25 -25 0 -24 2 -25 75 -25 73 0 75 1 75 25 0 20 5 25 25 25 20 0 25 5 25 25 0 20 -5 25 -25 25 -23 0 -25 3 -25 50 l0 50 100 0 100 0 0 -25 c0 -23 -3 -25 -50 -25 l-50 0 0 -50 c0 -47 -2 -50 -25 -50 -20 0 -25 -5 -25 -25 0 -20 -5 -25 -25 -25 -23 0 -25 -3 -25 -50 l0 -50 49 0 49 0 6 44 c7 44 8 45 52 52 l44 6 0 49 c0 46 2 49 25 49 20 0 25 -5 25 -25 0 -20 5 -25 25 -25 24 0 25 -2 25 -75 l0 -75 -50 0 c-47 0 -50 2 -50 25 0 20 -5 25 -24 25 -19 0 -24 -6 -29 -37 -4 -21 -4 -55 0 -75 5 -32 10 -38 29 -38 22 0 24 -4 24 -50 0 -47 2 -50 25 -50 l25 0 0 -125 0 -125 -25 0 c-20 0 -25 -5 -25 -25 0 -20 -5 -25 -25 -25 -20 0 -25 -5 -25 -25 0 -20 -5 -25 -25 -25 l-25 0 0 -100 0 -100 -25 0 c-20 0 -25 -5 -25 -25 0 -23 -3 -25 -50 -25 -47 0 -50 -2 -50 -25 0 -23 -3 -25 -50 -25 -47 0 -50 2 -50 25 0 23 -3 25 -50 25 -47 0 -50 -2 -50 -25 0 -20 5 -25 25 -25 20 0 25 -5 25 -25 0 -20 5 -25 25 -25 20 0 25 -5 25 -25 l0 -25 100 0 100 0 0 -50 0 -50 -50 0 c-47 0 -50 2 -50 25 0 24 -2 25 -75 25 -73 0 -75 1 -75 25 0 20 -5 25 -25 25 -20 0 -25 5 -25 25 0 20 -5 25 -25 25 -20 0 -25 5 -25 25 0 20 -5 25 -25 25 -20 0 -25 -5 -25 -25 0 -20 -5 -25 -25 -25 -20 0 -25 -5 -25 -25 0 -20 -5 -25 -25 -25 -20 0 -25 -5 -25 -25 0 -24 -3 -25 -55 -25 -47 0 -55 -3 -55 -19 0 -20 -34 -31 -101 -31 l-39 0 0 50 0 50 100 0 100 0 0 25 c0 23 3 25 50 25 l50 0 0 50 c0 47 -2 50 -25 50 -20 0 -25 -5 -25 -25 0 -24 -2 -25 -75 -25 -73 0 -75 1 -75 25 0 20 -5 25 -25 25 -20 0 -25 5 -25 25 0 20 -5 25 -25 25 -20 0 -25 5 -25 25 0 20 -5 25 -25 25 -24 0 -25 2 -25 75 0 73 -1 75 -25 75 -20 0 -25 5 -25 25 0 20 -5 25 -25 25 -20 0 -25 5 -25 25 0 20 -5 25 -25 25 l-25 0 0 150 0 150 25 0 c20 0 25 5 25 25 0 20 5 25 25 25 20 0 25 5 25 25 0 20 5 25 25 25 23 0 25 3 25 50 l0 50 -75 0 c-73 0 -75 1 -75 25 0 20 -5 25 -25 25 -20 0 -25 5 -25 25 0 20 5 25 25 25 20 0 25 5 25 25 0 23 3 25 50 25 l50 0 0 -50 0 -50 50 0 50 0 0 75 0 75 -75 0 c-73 0 -75 1 -75 25 0 20 5 25 25 25 20 0 25 5 25 25 0 24 2 25 75 25 l75 0 0 -100z"/>
 <path d="M440 1175 c0 -20 5 -25 25 -25 20 0 25 5 25 25 0 20 -5 25 -25 25 -20 0 -25 -5 -25 -25z"/>
 <path d="M590 1075 c0 -20 -5 -25 -25 -25 -24 0 -25 -2 -25 -75 0 -73 1 -75 25 -75 23 0 25 -3 25 -50 l0 -50 100 0 100 0 0 150 0 150 -100 0 -100 0 0 -25z"/>
 <path d="M840 950 l0 -150 100 0 100 0 0 50 c0 47 2 50 25 50 24 0 25 2 25 75 0 73 -1 75 -25 75 -20 0 -25 5 -25 25 l0 25 -100 0 -100 0 0 -150z"/>
 <path d="M440 975 c0 -20 -5 -25 -25 -25 -23 0 -25 -3 -25 -50 0 -47 -2 -50 -25 -50 -20 0 -25 -5 -25 -25 0 -20 5 -25 25 -25 23 0 25 -3 25 -50 0 -47 2 -50 25 -50 20 0 25 5 25 25 0 20 5 25 25 25 l25 0 0 125 0 125 -25 0 c-20 0 -25 -5 -25 -25z"/>
 <path d="M1140 925 c0 -73 -1 -75 -25 -75 -20 0 -25 -5 -25 -25 0 -20 5 -25 25 -25 20 0 25 -5 25 -25 0 -20 5 -25 25 -25 20 0 25 -5 25 -25 0 -20 5 -25 25 -25 l25 0 0 125 0 125 -25 0 c-20 0 -25 5 -25 25 0 20 -5 25 -25 25 -24 0 -25 -2 -25 -75z"/>
 <path d="M540 675 c0 -20 -5 -25 -25 -25 -20 0 -25 -5 -25 -25 0 -20 -5 -25 -25 -25 l-25 0 0 -100 0 -100 25 0 c20 0 25 -5 25 -25 0 -23 3 -25 50 -25 47 0 50 -2 50 -25 0 -20 5 -25 25 -25 20 0 25 5 25 25 0 23 3 25 50 25 47 0 50 2 50 25 0 20 5 25 25 25 l25 0 0 100 0 100 -25 0 c-20 0 -25 5 -25 25 0 20 -5 25 -25 25 -20 0 -25 5 -25 25 0 24 -2 25 -75 25 -73 0 -75 -1 -75 -25z m100 -175 c0 -47 -2 -50 -25 -50 -23 0 -25 3 -25 50 0 47 2 50 25 50 23 0 25 -3 25 -50z"/>
 <path d="M990 675 c0 -23 -3 -25 -50 -25 l-50 0 0 -125 0 -125 25 0 c20 0 25 -5 25 -25 l0 -25 100 0 100 0 0 25 c0 20 5 25 25 25 l25 0 0 125 0 125 -50 0 c-47 0 -50 2 -50 25 0 23 -3 25 -50 25 -47 0 -50 -2 -50 -25z m100 -175 c0 -47 -2 -50 -25 -50 -20 0 -25 5 -25 25 0 20 -5 25 -25 25 -20 0 -25 5 -25 25 0 23 3 25 50 25 l50 0 0 -50z"/>
 </g>

</svg>